<svg width="275" height="180" viewBox="0 0 275 180" fill="none" xmlns="http://www.w3.org/2000/svg">
<rect width="275" height="180" rx="20" fill="white"/>
<path d="M192 35H82V145H192V35Z" fill="white"/>
<path d="M175.941 90.11C175.941 109.733 160.132 125.64 140.631 125.64C131.182 125.64 105.857 125.64 99.5156 125.64C98.7336 125.64 98.1297 124.964 98.2092 124.186L105.199 55.7659C105.268 55.0923 105.828 54.58 106.505 54.58C111.6 54.58 131.794 54.58 140.631 54.58C160.132 54.58 175.941 70.4873 175.941 90.11Z" fill="#E5E5E5"/>
<path d="M147.78 90.11C147.78 95.6384 143.359 100.12 137.905 100.12C135.639 100.12 130.108 100.12 127.46 100.12C126.678 100.12 126.069 99.4446 126.148 98.6669L127.91 81.2869C127.978 80.6128 128.544 80.1 129.222 80.1C131.353 80.1 135.791 80.1 137.905 80.1C143.359 80.1 147.78 84.5816 147.78 90.11Z" fill="white"/>
<path d="M138.136 74.2454C138.523 69.0899 135.694 67.1121 134.947 69.7035C134.201 72.2946 134.066 73.7631 132.486 76.0265C131.019 78.1281 127.361 80.2679 128.092 81.6528C128.823 83.0377 136.099 82.2551 136.099 82.2551C136.099 82.2551 137.748 79.4008 138.136 74.2454Z" fill="white"/>
</svg>
