<svg width="500" height="500" viewBox="0 0 500 500" fill="none" xmlns="http://www.w3.org/2000/svg">
<rect width="500" height="500" fill="white"/>
<path d="M427 250.5C427 339.694 355.142 412 266.5 412C223.55 412 108.437 412 79.6137 412C76.0588 412 73.314 408.927 73.6753 405.39L105.449 94.3902C105.762 91.3285 108.306 89 111.384 89C134.544 89 226.333 89 266.5 89C355.142 89 427 161.306 427 250.5Z" fill="#248232"/>
<path d="M299 250.5C299 275.629 278.904 296 254.114 296C243.814 296 218.671 296 206.634 296C203.081 296 200.311 292.93 200.67 289.395L208.682 210.395C208.992 207.331 211.564 205 214.643 205C224.329 205 244.504 205 254.114 205C278.904 205 299 225.371 299 250.5Z" fill="white"/>
</svg>
