<?xml version="1.0" encoding="utf-8"?>
<!-- Generator: Adobe Illustrator 24.1.3, SVG Export Plug-In . SVG Version: 6.00 Build 0)  -->
<svg version="1.1" xmlns="http://www.w3.org/2000/svg" xmlns:xlink="http://www.w3.org/1999/xlink" x="0px" y="0px"
	 viewBox="0 0 500 500" style="enable-background:new 0 0 500 500;" xml:space="preserve">
<style type="text/css">
	.st0{fill:#BE3B21;}
	.st1{fill:#FFFFFF;}
	.st2{fill:#248232;}
</style>
<g id="Слой_2">
	<path class="st0" d="M425.8,249.5c0,89.2-71.9,161.5-160.5,161.5c-42.9,0-158.1,0-186.9,0c-3.6,0-6.3-3.1-5.9-6.6l31.8-311
		c0.3-3.1,2.9-5.4,5.9-5.4c23.2,0,114.9,0,155.1,0C354,88,425.8,160.3,425.8,249.5z"/>
	<path class="st1" d="M297.8,249.5c0,25.1-20.1,45.5-44.9,45.5c-10.3,0-35.4,0-47.5,0c-3.6,0-6.3-3.1-6-6.6l8-79
		c0.3-3.1,2.9-5.4,6-5.4c9.7,0,29.9,0,39.5,0C277.7,204,297.8,224.4,297.8,249.5z"/>
</g>
<g id="Слой_1">
	<rect class="st1" width="500" height="500"/>
	<path class="st0" d="M427,250.5c0,89.2-71.9,161.5-160.5,161.5c-42.9,0-158.1,0-186.9,0c-3.6,0-6.3-3.1-5.9-6.6l31.8-311
		c0.3-3.1,2.9-5.4,5.9-5.4c23.2,0,114.9,0,155.1,0C355.1,89,427,161.3,427,250.5z"/>
	<path class="st1" d="M299,250.5c0,25.1-20.1,45.5-44.9,45.5c-10.3,0-35.4,0-47.5,0c-3.6,0-6.3-3.1-6-6.6l8-79
		c0.3-3.1,2.9-5.4,6-5.4c9.7,0,29.9,0,39.5,0C278.9,205,299,225.4,299,250.5z"/>
	<path class="st1" d="M244.3,324.4c0,23.5-13.5,31.5-16,19.5s-2.6-18.7-9-29.5c-5.9-10-21.7-19.6-18-27c3.7-7.4,36.5,0,36.5,0
		S244.3,300.9,244.3,324.4z"/>
</g>
<g id="Слой_4">
	<path class="st2" d="M425.8,249.5c0,89.2-71.9,161.5-160.5,161.5c-42.9,0-158.1,0-186.9,0c-3.6,0-6.3-3.1-5.9-6.6l31.8-311
		c0.3-3.1,2.9-5.4,5.9-5.4c23.2,0,114.9,0,155.1,0C354,88,425.8,160.3,425.8,249.5z"/>
	<path class="st1" d="M297.8,249.5c0,25.1-20.1,45.5-44.9,45.5c-10.3,0-35.4,0-47.5,0c-3.6,0-6.3-3.1-6-6.6l8-79
		c0.3-3.1,2.9-5.4,6-5.4c9.7,0,29.9,0,39.5,0C277.7,204,297.8,224.4,297.8,249.5z"/>
	<path class="st1" d="M254,177.4c1.8-23.4-11.1-32.4-14.5-20.6c-3.4,11.8-4,18.5-11.2,28.7c-6.7,9.6-23.3,19.3-20,25.6
		s36.4,2.7,36.4,2.7S252.2,200.8,254,177.4z"/>
</g>
<g id="Слой_3">
	<path class="st2" d="M425.8,249.5c0,89.2-71.9,161.5-160.5,161.5c-42.9,0-158.1,0-186.9,0c-3.6,0-6.3-3.1-5.9-6.6l31.8-311
		c0.3-3.1,2.9-5.4,5.9-5.4c23.2,0,114.9,0,155.1,0C354,88,425.8,160.3,425.8,249.5z"/>
	<path class="st1" d="M297.8,249.5c0,25.1-20.1,45.5-44.9,45.5c-10.3,0-35.4,0-47.5,0c-3.6,0-6.3-3.1-6-6.6l8-79
		c0.3-3.1,2.9-5.4,6-5.4c9.7,0,29.9,0,39.5,0C277.7,204,297.8,224.4,297.8,249.5z"/>
</g>
</svg>
