<svg width="95" height="54" viewBox="0 0 95 54" fill="none" xmlns="http://www.w3.org/2000/svg">
<rect width="95" height="54" rx="10" transform="matrix(1 0 0 -1 0 54)" fill="#B0B0B0"/>
<path d="M72 27.3952C72 39.7638 62.0354 49.7904 49.7435 49.7904C43.7876 49.7904 27.8248 49.7904 23.8279 49.7904C23.335 49.7904 22.9543 49.3643 23.0044 48.8738L27.4105 5.74746C27.4539 5.32289 27.8067 5 28.2335 5C31.4451 5 44.1735 5 49.7435 5C62.0354 5 72 15.0267 72 27.3952Z" fill="white"/>
<path fill-rule="evenodd" clip-rule="evenodd" d="M42.4557 21.3454C42.2644 21.5365 42.0636 21.9102 42.0093 22.1756C41.9551 22.4411 41.7058 24.7007 41.4552 27.1969C41.2046 29.6931 40.9998 32.0583 41 32.4526C41.0004 33.0019 41.2584 33.4546 42.1017 34.3858C42.7074 35.0547 43.4464 36.0824 43.744 36.6697C44.0415 37.2571 44.3515 38.1307 44.4325 38.6109C44.5138 39.0914 44.6809 39.8138 44.8042 40.2165C44.9754 40.7757 45.1357 40.9325 45.4828 40.8807C45.7328 40.8433 46.1466 40.5315 46.4025 40.1879C46.774 39.6889 46.8829 39.1691 46.9442 37.6029C46.9863 36.5247 46.9239 35.1871 46.805 34.63L46.5889 33.6174H47.8504C48.5441 33.6174 49.6183 33.467 50.2373 33.2831C50.9469 33.0723 51.7691 32.5837 52.4614 31.9613C53.1413 31.3498 53.7466 30.5393 54.0504 29.8335C54.3205 29.2056 54.5527 28.183 54.5673 27.5576C54.582 26.9328 54.46 25.9431 54.2964 25.3584C54.1066 24.681 53.6304 23.8857 52.9837 23.1664C52.4052 22.5228 51.4904 21.8148 50.857 21.5197C49.8417 21.047 49.4456 21.002 46.2743 21C43.4134 20.9983 42.7422 21.0589 42.4557 21.3454Z" fill="#B0B0B0"/>
</svg>
