<svg width="53" height="30" viewBox="0 0 53 30" fill="none" xmlns="http://www.w3.org/2000/svg">
<rect width="52.7778" height="30" rx="4" fill="#248232"/>
<path d="M40.0001 15.2196C40.0001 22.091 34.4642 27.6613 27.6353 27.6613C24.3265 27.6613 15.4583 27.6613 13.2378 27.6613C12.9639 27.6613 12.7525 27.4246 12.7803 27.1521L15.2281 3.19303C15.2522 2.95716 15.4482 2.77777 15.6853 2.77777C17.4696 2.77777 24.5409 2.77777 27.6353 2.77777C34.4642 2.77777 40.0001 8.34815 40.0001 15.2196Z" fill="white"/>
<path d="M30.1389 15.2196C30.1389 17.1555 28.5908 18.7248 26.681 18.7248C25.8875 18.7248 23.9505 18.7248 23.0232 18.7248C22.7494 18.7248 22.536 18.4883 22.5637 18.216L23.1809 12.1299C23.2048 11.8939 23.403 11.7143 23.6402 11.7143C24.3864 11.7143 25.9406 11.7143 26.681 11.7143C28.5908 11.7143 30.1389 13.2837 30.1389 15.2196Z" fill="#248232"/>
<path d="M26.7619 9.66414C26.8977 7.85881 25.9068 7.16623 25.6454 8.07367C25.384 8.98103 25.3368 9.49527 24.7836 10.2878C24.2698 11.0238 22.9888 11.7731 23.2448 12.258C23.5008 12.743 26.0487 12.469 26.0487 12.469C26.0487 12.469 26.6261 11.4695 26.7619 9.66414Z" fill="#248232"/>
</svg>
