<svg width="95" height="54" viewBox="0 0 95 54" fill="none" xmlns="http://www.w3.org/2000/svg">
<rect width="95" height="54" rx="10" fill="#B0B0B0"/>
<path d="M72 27.3952C72 39.7638 62.0354 49.7904 49.7435 49.7904C43.7876 49.7904 27.8248 49.7904 23.8279 49.7904C23.335 49.7904 22.9543 49.3643 23.0044 48.8738L27.4105 5.74746C27.4539 5.32289 27.8067 5 28.2335 5C31.4451 5 44.1735 5 49.7435 5C62.0354 5 72 15.0267 72 27.3952Z" fill="white"/>
<path d="M54.2501 27.3952C54.2501 30.8798 51.4634 33.7047 48.0258 33.7047C46.5975 33.7047 43.1109 33.7047 41.4417 33.7047C40.949 33.7047 40.5649 33.279 40.6147 32.7888L41.7257 21.8338C41.7687 21.4089 42.1254 21.0857 42.5523 21.0857C43.8955 21.0857 46.6932 21.0857 48.0258 21.0857C51.4634 21.0857 54.2501 23.9105 54.2501 27.3952Z" fill="#B0B0B0"/>
<path d="M48.1713 17.3954C48.4158 14.1459 46.6322 12.8992 46.1617 14.5326C45.6912 16.1659 45.6062 17.0915 44.6104 18.5181C43.6856 19.8428 41.3797 21.1915 41.8405 22.0645C42.3013 22.9374 46.8877 22.4441 46.8877 22.4441C46.8877 22.4441 47.9269 20.645 48.1713 17.3954Z" fill="#B0B0B0"/>
</svg>
