<svg width="32" height="29" viewBox="0 0 32 29" fill="none" xmlns="http://www.w3.org/2000/svg">
<path d="M31.5999 14.4426C31.5999 22.419 25.1738 28.8852 17.2467 28.8852C13.4058 28.8852 3.11152 28.8852 0.533918 28.8852C0.216012 28.8852 -0.0294498 28.6104 0.00286049 28.2941L2.84431 0.482033C2.8723 0.208232 3.09981 0 3.37507 0C5.44621 0 13.6547 0 17.2467 0C25.1738 0 31.5999 6.46616 31.5999 14.4426Z" fill="white"/>
<path d="M22.1532 17.0943C22.1532 20.4547 19.4659 23.1787 16.1509 23.1787C14.7735 23.1787 11.4113 23.1787 9.80172 23.1787C9.3266 23.1787 8.95619 22.7682 9.00419 22.2955L10.0756 11.7314C10.117 11.3217 10.461 11.0099 10.8727 11.0099C12.1679 11.0099 14.8658 11.0099 16.1509 11.0099C19.4659 11.0099 22.1532 13.734 22.1532 17.0943Z" fill="#B0B0B0"/>
<path d="M16.291 7.45136C16.5267 4.31769 14.8068 3.11552 14.3531 4.69065C13.8993 6.26563 13.8174 7.15824 12.8571 8.53398C11.9653 9.81143 9.74163 11.112 10.186 11.9538C10.6304 12.7956 15.0531 12.3199 15.0531 12.3199C15.0531 12.3199 16.0552 10.585 16.291 7.45136Z" fill="#B0B0B0"/>
</svg>
