<svg width="32" height="29" viewBox="0 0 32 29" fill="none" xmlns="http://www.w3.org/2000/svg">
<path d="M31.5999 14.4426C31.5999 22.419 25.1738 28.8852 17.2467 28.8852C13.4058 28.8852 3.11152 28.8852 0.533918 28.8852C0.216012 28.8852 -0.0294498 28.6104 0.00286049 28.2941L2.84431 0.482033C2.8723 0.208232 3.09981 0 3.37507 0C5.44621 0 13.6547 0 17.2467 0C25.1738 0 31.5999 6.46616 31.5999 14.4426Z" fill="white"/>
<path fill-rule="evenodd" clip-rule="evenodd" d="M10.2355 5.34125C10.0465 5.53001 9.84811 5.89921 9.79453 6.16146C9.74094 6.42371 9.49466 8.65601 9.24706 11.1221C8.99946 13.5882 8.79714 15.9249 8.79736 16.3144C8.7978 16.8571 9.05261 17.3044 9.88573 18.2243C10.4842 18.8851 11.2143 19.9004 11.5082 20.4807C11.8022 21.0609 12.1084 21.924 12.1885 22.3984C12.2687 22.8731 12.4339 23.5868 12.5557 23.9846C12.7248 24.5371 12.8831 24.692 13.2261 24.6408C13.473 24.6038 13.8818 24.2959 14.1347 23.9564C14.5017 23.4634 14.6093 22.9498 14.6699 21.4026C14.7114 20.3374 14.6498 19.0159 14.5323 18.4656L14.3188 17.4651H15.5651C16.2504 17.4651 17.3116 17.3166 17.9232 17.1348C18.6242 16.9266 19.4365 16.4439 20.1205 15.8291C20.7922 15.225 21.3902 14.4242 21.6903 13.7269C21.9571 13.1066 22.1866 12.0963 22.201 11.4784C22.2154 10.8612 22.0949 9.88349 21.9333 9.30584C21.7458 8.63654 21.2754 7.85089 20.6365 7.14025C20.0649 6.50442 19.1612 5.80494 18.5354 5.51338C17.5323 5.04641 17.141 5.00201 14.008 5.00004C11.1817 4.99829 10.5185 5.05822 10.2355 5.34125Z" fill="#BE3B21"/>
</svg>
