<svg width="73" height="71" viewBox="0 0 73 71" fill="none" xmlns="http://www.w3.org/2000/svg">
<rect width="73" height="71" rx="35.5" fill="#363557"/>
<path fill-rule="evenodd" clip-rule="evenodd" d="M36 57.875C41.8016 57.875 47.3656 55.5703 51.468 51.468C55.5703 47.3656 57.875 41.8016 57.875 36C57.875 30.1984 55.5703 24.6344 51.468 20.532C47.3656 16.4297 41.8016 14.125 36 14.125C30.1984 14.125 24.6344 16.4297 20.532 20.532C16.4297 24.6344 14.125 30.1984 14.125 36C14.125 41.8016 16.4297 47.3656 20.532 51.468C24.6344 55.5703 30.1984 57.875 36 57.875ZM36 11C42.6304 11 48.9893 13.6339 53.6777 18.3223C58.3661 23.0107 61 29.3696 61 36C61 42.6304 58.3661 48.9893 53.6777 53.6777C48.9893 58.3661 42.6304 61 36 61C29.3696 61 23.0107 58.3661 18.3223 53.6777C13.6339 48.9893 11 42.6304 11 36C11 29.3696 13.6339 23.0107 18.3223 18.3223C23.0107 13.6339 29.3696 11 36 11ZM27.0812 42.7062C26.7879 42.9996 26.623 43.3976 26.623 43.8125C26.623 44.2274 26.7879 44.6254 27.0812 44.9188C27.3746 45.2121 27.7726 45.377 28.1875 45.377C28.6024 45.377 29.0004 45.2121 29.2938 44.9188L42.0938 32.1156V40.7656C42.0938 41.18 42.2584 41.5775 42.5514 41.8705C42.8444 42.1635 43.2418 42.3281 43.6562 42.3281C44.0707 42.3281 44.4681 42.1635 44.7611 41.8705C45.0541 41.5775 45.2188 41.18 45.2188 40.7656V28.3438C45.2188 27.9293 45.0541 27.5319 44.7611 27.2389C44.4681 26.9459 44.0707 26.7812 43.6562 26.7812H31.2344C30.82 26.7812 30.4225 26.9459 30.1295 27.2389C29.8365 27.5319 29.6719 27.9293 29.6719 28.3438C29.6719 28.7582 29.8365 29.1556 30.1295 29.4486C30.4225 29.7416 30.82 29.9062 31.2344 29.9062H39.8844L27.0812 42.7062Z" fill="white"/>
</svg>
